<svg width="38" height="38" viewBox="0 0 38 38" fill="none" xmlns="http://www.w3.org/2000/svg">
<path fill-rule="evenodd" clip-rule="evenodd" d="M18.9925 38C29.49 38 38 29.4934 38 19C38 8.50659 29.49 0 18.9925 0C8.75052 0 0.400553 8.09738 0 18.2371H22.8263L13.3042 11.7009C12.9002 11.4137 12.6767 11.029 12.6818 10.6297C12.6868 10.2304 12.92 9.84841 13.3312 9.56605C13.7423 9.2837 14.2985 9.12354 14.8799 9.12007C15.4614 9.1166 16.0215 9.27009 16.4398 9.5475L29.745 18.6848C29.9507 18.8259 30.1135 18.9936 30.224 19.1783C30.3393 19.3641 30.397 19.562 30.397 19.76V19.7661C30.397 19.9648 30.3398 20.1616 30.2286 20.345C30.1175 20.5285 29.9547 20.6951 29.7495 20.8352L16.4442 29.9725C16.026 30.2499 15.4658 30.4034 14.8844 30.4C14.3029 30.3965 13.7468 30.2363 13.3356 29.954C12.9245 29.6716 12.6912 29.2897 12.6862 28.8904C12.6811 28.4911 12.9047 28.1064 13.3086 27.8192L22.8263 21.2829H0.120753C1.24887 30.6999 9.26783 38 18.9925 38Z" fill="#8E7AB5"/>
</svg>
