<svg width="22" height="46" viewBox="0 0 22 46" fill="none" xmlns="http://www.w3.org/2000/svg">
<path d="M8.48737 46V40.3423C5.27218 40.2848 1.94307 39.2779 3.05176e-05 37.8746L1.33232 34.122C3.32915 35.4677 6.84813 36.5321 9.95256 36.5321C13.8924 36.5321 16.5412 34.2371 16.5412 31.0407C16.5412 27.9593 14.3798 26.0542 10.2722 24.3729C4.61396 22.1354 1.75321 19.5526 1.75321 14.6781C1.75321 10.0272 4.70889 6.49837 9.81332 5.65771V0H12.6203V5.43395C15.9494 5.54583 18.2216 6.44084 19.8323 7.39657L18.4431 11.0917C16.4536 9.80568 14.1339 9.13875 11.7722 9.17379C7.50003 9.17379 6.52534 11.7533 6.52534 13.994C6.52534 16.906 7.94308 18.3636 12.769 20.3869C18.4842 22.7395 22 25.6546 22 30.6411C22 35.0682 18.9494 39.214 13.2374 40.1665V46H8.48737Z" fill="#8E7AB5"/>
</svg>
