<svg width="44" height="44" viewBox="0 0 44 44" fill="none" xmlns="http://www.w3.org/2000/svg">
<circle cx="22.2552" cy="21.7448" r="21.7448" fill="white"/>
<circle cx="22.2552" cy="21.7448" r="21.2448" stroke="#8E7AB5" stroke-opacity="0.85"/>
<path d="M27.2836 9.34289C27.9298 8.66076 28.4225 7.86844 28.7334 7.01142C29.0444 6.1544 29.1674 5.24956 29.0954 4.34888C27.1116 4.49555 25.2701 5.35012 23.9676 6.72847C23.3439 7.38908 22.8712 8.1576 22.5776 8.98852C22.284 9.81945 22.1755 10.6959 22.2583 11.5659C23.226 11.5733 24.1826 11.3767 25.054 10.9912C25.9254 10.6057 26.6883 10.0417 27.2836 9.34289ZM31.591 20.9904C31.6024 19.7908 31.9474 18.6136 32.5934 17.57C33.2394 16.5264 34.165 15.6508 35.283 15.0257C34.5775 14.0946 33.6447 13.3269 32.5588 12.7834C31.4729 12.2399 30.2637 11.9356 29.0271 11.8947C26.3606 11.6442 23.8992 13.3193 22.4805 13.3193C21.0618 13.3193 19.062 11.926 16.8399 11.9573C15.3873 12.0011 13.9718 12.389 12.7316 13.0832C11.4914 13.7774 10.4688 14.7541 9.76354 15.9181C6.75522 20.7086 8.99437 27.8317 12.0027 31.6985C13.3701 33.5928 15.0794 35.7376 17.3356 35.6593C19.5919 35.581 20.3269 34.3756 22.942 34.3756C25.5572 34.3756 26.3606 35.6593 28.5827 35.6123C30.8047 35.5654 32.3772 33.6711 33.813 31.7768C34.8301 30.4015 35.6246 28.8987 36.1718 27.3151C34.8172 26.7859 33.6615 25.905 32.8474 24.781C32.0333 23.657 31.5965 22.3392 31.591 20.9904Z" fill="black"/>
</svg>
