<svg width="44" height="44" viewBox="0 0 44 44" fill="none" xmlns="http://www.w3.org/2000/svg">
<circle cx="21.7448" cy="21.7448" r="21.7448" fill="white"/>
<circle cx="21.7448" cy="21.7448" r="21.2448" stroke="#8E7AB5" stroke-opacity="0.85"/>
<g clip-path="url(#clip0_101_2)">
<path d="M35.6468 22.0051C35.6468 20.8647 35.5521 20.0326 35.3472 19.1697H22.022V24.3165H29.8436C29.686 25.5956 28.8344 27.5218 26.942 28.8162L26.9155 28.9885L31.1287 32.1779L31.4206 32.2064C34.1013 29.787 35.6468 26.2273 35.6468 22.0051Z" fill="#4285F4"/>
<path d="M22.022 35.5658C25.8539 35.5658 29.0708 34.333 31.4206 32.2065L26.942 28.8163C25.7436 29.633 24.1351 30.2031 22.022 30.2031C18.2689 30.2031 15.0835 27.7839 13.948 24.4399L13.7816 24.4538L9.40068 27.7669L9.34338 27.9225C11.6772 32.453 16.4711 35.5658 22.022 35.5658Z" fill="#34A853"/>
<path d="M13.9481 24.4399C13.6484 23.5769 13.475 22.6523 13.475 21.6969C13.475 20.7414 13.6484 19.8169 13.9323 18.9539L13.9244 18.7702L9.48855 15.4038L9.34341 15.4713C8.38152 17.3513 7.82959 19.4625 7.82959 21.6969C7.82959 23.9313 8.38152 26.0424 9.34341 27.9224L13.9481 24.4399Z" fill="#FBBC05"/>
<path d="M22.022 13.1907C24.687 13.1907 26.4847 14.3156 27.5097 15.2557L31.5151 11.434C29.0552 9.19961 25.8539 7.82812 22.022 7.82812C16.4711 7.82812 11.6772 10.9409 9.34338 15.4713L13.9323 18.954C15.0835 15.6101 18.2689 13.1907 22.022 13.1907Z" fill="#EB4335"/>
</g>
<defs>
<clipPath id="clip0_101_2">
<rect width="27.8333" height="27.8333" fill="white" transform="translate(7.82812 7.82812)"/>
</clipPath>
</defs>
</svg>
