<svg width="45" height="44" viewBox="0 0 45 44" fill="none" xmlns="http://www.w3.org/2000/svg">
<circle cx="22.5" cy="21.7448" r="21.7448" fill="white"/>
<circle cx="22.5" cy="21.7448" r="21.2448" stroke="#8E7AB5" stroke-opacity="0.85"/>
<g clip-path="url(#clip0_101_3)">
<path d="M22.5 35.6615C30.186 35.6615 36.4167 29.4308 36.4167 21.7448C36.4167 14.0588 30.186 7.82812 22.5 7.82812C14.8141 7.82812 8.58337 14.0588 8.58337 21.7448C8.58337 29.4308 14.8141 35.6615 22.5 35.6615Z" fill="#0177B5"/>
<path d="M28.5886 14.7864H16.4115C16.1809 14.7864 15.9596 14.878 15.7965 15.0411C15.6334 15.2043 15.5417 15.4255 15.5417 15.6562V27.8333C15.5417 28.0639 15.6334 28.2852 15.7965 28.4483C15.9596 28.6114 16.1809 28.703 16.4115 28.703H28.5886C28.8193 28.703 29.0405 28.6114 29.2037 28.4483C29.3668 28.2852 29.4584 28.0639 29.4584 27.8333V15.6562C29.4584 15.4255 29.3668 15.2043 29.2037 15.0411C29.0405 14.878 28.8193 14.7864 28.5886 14.7864ZM19.8907 26.5286H17.7162V20.0051H19.8907V26.5286ZM18.8035 19.1353C18.5454 19.1353 18.2932 19.0588 18.0786 18.9155C17.8641 18.7721 17.6968 18.5683 17.5981 18.3299C17.4993 18.0915 17.4735 17.8292 17.5238 17.5761C17.5742 17.323 17.6984 17.0906 17.8809 16.9081C18.0634 16.7256 18.2959 16.6014 18.5489 16.551C18.802 16.5007 19.0643 16.5265 19.3027 16.6253C19.5411 16.724 19.7449 16.8912 19.8883 17.1058C20.0316 17.3204 20.1082 17.5726 20.1082 17.8306C20.1082 18.1767 19.9707 18.5085 19.726 18.7532C19.4813 18.9979 19.1495 19.1353 18.8035 19.1353ZM27.2839 26.5286H25.1095V22.1796C25.1095 21.8186 24.6224 21.5273 24.0222 21.5273C23.1524 21.5273 22.935 22.6884 22.935 23.0494V26.5286H20.7605V20.0051H22.935V21.5273C22.935 20.44 23.9091 20.0051 25.1095 20.0051C25.6862 20.0051 26.2393 20.2342 26.647 20.642C27.0548 21.0498 27.2839 21.6029 27.2839 22.1796V26.5286Z" fill="white"/>
</g>
<defs>
<clipPath id="clip0_101_3">
<rect width="27.8333" height="27.8333" fill="white" transform="translate(8.58337 7.82812)"/>
</clipPath>
</defs>
</svg>
